<?xml version="1.0" encoding="UTF-8"?>
<svg width="227px" height="44px" viewBox="0 0 227 44" version="1.1" xmlns="http://www.w3.org/2000/svg" xmlns:xlink="http://www.w3.org/1999/xlink">
    <!-- Generator: Sketch 48.2 (47327) - http://www.bohemiancoding.com/sketch -->
    <title>logo-text</title>
    <desc>Created with Sketch.</desc>
    <defs>
        <path d="M31.4018137,9.28888889 L21.8082986,16.2421902 L21.8082986,21.2028131 L20.3229232,20.2005734 L14.4364035,24.2912961 L14.4364035,41.1186392 L20.3229232,45.2093619 L21.8082986,44.2079651 L21.8082986,45.8466144 L31.4018137,52.8007586 L41.2668028,45.850829 L41.2668028,44.1902637 L42.7341372,45.2093619 L48.7856032,41.1262256 L48.7856032,24.2845526 L42.7341372,20.2005734 L41.2668028,21.2213575 L41.2668028,16.2346039 L31.4018137,9.28888889 Z M23.3314742,45.0921951 L23.3314742,16.9957666 L31.0263891,11.4214931 L31.0263891,50.6647827 L23.3314742,45.0921951 Z M41.2668028,42.3552125 L41.2668028,23.0572515 L42.7341372,22.1519484 L42.7341372,43.2849605 L41.2668028,42.3552125 Z M15.9638746,40.3456756 L15.9638746,25.0634168 L19.9474986,22.2969318 L19.9474986,43.1155323 L15.9638746,40.3456756 Z" id="path-1"></path>
        <path d="M70.3250397,24.9435687 C72.88578,24.9435687 74.3683139,26.5691845 74.3683139,29.3056377 L74.3683139,39.6824849 L70.9180532,39.6824849 L70.9180532,29.8475096 C70.9180532,28.0593322 70.2441742,27.5445539 69.1659678,27.5445539 C67.9260303,27.5445539 67.0095549,28.3844554 66.1739449,29.7120416 L66.1739449,39.6824849 L62.7236842,39.6824849 L62.7236842,25.3499726 L65.7157071,25.3499726 L65.9852587,27.2194308 C67.0904203,25.7834702 68.5190439,24.9435687 70.3250397,24.9435687 Z M90.0831729,32.1775588 C90.0831729,32.63815 90.0292626,33.2071155 90.0023074,33.5864258 L81.0531939,33.5864258 C81.2957903,36.5125342 82.6705036,37.4608101 84.5573648,37.4608101 C85.8242574,37.4608101 86.8755087,37.0544061 88.1154461,36.1874111 L89.5440697,38.1652436 C88.1424013,39.3031746 86.417271,40.0888889 84.2608581,40.0888889 C79.8402116,40.0888889 77.4681574,37.1356869 77.4681574,32.6110564 C77.4681574,28.2489874 79.7593461,24.9435687 83.8026203,24.9435687 C87.7919842,24.9435687 90.0831729,27.6529283 90.0831729,32.1775588 Z M86.6598674,31.3376574 L86.6598674,31.1750958 C86.6598674,28.8179529 85.8242574,27.4090859 83.8834858,27.4090859 C82.2661761,27.4090859 81.24188,28.4928298 81.0531939,31.3376574 L86.6598674,31.3376574 Z M107.577073,39.6824849 L103.264247,39.6824849 L101.107834,28.4386426 L98.8975107,39.6824849 L94.6655503,39.6824849 L91.5117965,25.3499726 L94.9620571,25.3499726 L96.956739,37.1356869 L99.4366139,25.3499726 L102.96774,25.3499726 L105.231974,37.1356869 L107.361431,25.3499726 L110.676916,25.3499726 L107.577073,39.6824849 Z M120.380774,24.9435687 C123.777125,24.9435687 125.717896,27.7071155 125.717896,32.502682 C125.717896,36.9731253 123.588438,40.0888889 120.084267,40.0888889 C118.520868,40.0888889 117.22702,39.3844554 116.310545,38.2194308 L116.094904,39.6824849 L113.04897,39.6824849 L113.04897,19.6061303 L116.499231,19.2268199 L116.499231,26.9755884 C117.415706,25.7021894 118.79042,24.9435687 120.380774,24.9435687 Z M119.167792,37.4879037 C120.892922,37.4879037 122.105905,36.1061303 122.105905,32.502682 C122.105905,28.6824849 120.973788,27.5445539 119.329523,27.5445539 C118.089585,27.5445539 117.17311,28.3844554 116.499231,29.4952928 L116.499231,35.8351943 C117.1192,36.864751 118.06263,37.4879037 119.167792,37.4879037 Z M136.149544,24.9706623 C136.661692,24.9706623 137.119929,25.0248495 137.578167,25.1603175 L136.985154,28.5199234 C136.553871,28.411549 136.203454,28.3573618 135.718261,28.3573618 C133.993131,28.3573618 133.10361,29.6307608 132.564507,32.0420909 L132.564507,39.6824849 L129.114246,39.6824849 L129.114246,25.3499726 L132.106269,25.3499726 L132.429731,28.1677066 C133.10361,26.1085933 134.478324,24.9706623 136.149544,24.9706623 Z M141.432755,18.0888889 C142.726603,18.0888889 143.616123,19.0100712 143.616123,20.2021894 C143.616123,21.367214 142.726603,22.2883963 141.432755,22.2883963 C140.165863,22.2883963 139.276342,21.367214 139.276342,20.2021894 C139.276342,19.0100712 140.165863,18.0888889 141.432755,18.0888889 Z M143.184841,39.6824849 L139.73458,39.6824849 L139.73458,25.3499726 L143.184841,25.3499726 L143.184841,39.6824849 Z M153.077385,24.9435687 C154.937291,24.9435687 156.365915,25.458347 157.713673,26.6233716 L156.150273,28.7366721 C155.233798,28.005145 154.371233,27.6800219 153.293026,27.6800219 C151.298344,27.6800219 150.085362,29.1430761 150.085362,32.5839628 C150.085362,36.0519431 151.352255,37.2711549 153.293026,37.2711549 C154.371233,37.2711549 155.125977,36.9189381 156.123318,36.1603175 L157.713673,38.4361795 C156.419825,39.4928298 154.937291,40.0888889 153.10434,40.0888889 C148.9802,40.0888889 146.41946,37.2169677 146.41946,32.63815 C146.41946,28.0593322 148.9802,24.9435687 153.077385,24.9435687 Z M163.670763,39.6824849 L160.220503,39.6824849 L160.220503,19.6061303 L163.670763,19.2268199 L163.670763,39.6824849 Z M167.471441,31.6627805 L172.673787,39.6824849 L168.711378,39.6824849 L163.805539,31.8524357 L168.576603,25.3499726 L172.215549,25.3499726 L167.471441,31.6627805 Z M179.116071,24.9435687 C181.164663,24.9435687 182.835883,25.593815 184.183641,26.6504652 L182.835883,28.7366721 C181.649856,27.9238643 180.517739,27.5174603 179.331712,27.5174603 C177.876133,27.5174603 177.094434,28.0864258 177.094434,28.9534209 C177.094434,29.9016968 177.660492,30.3351943 180.086456,31.0125342 C182.997614,31.7982485 184.641879,32.9903667 184.641879,35.5371648 C184.641879,38.5174603 181.892452,40.0888889 178.630878,40.0888889 C176.177958,40.0888889 174.264142,39.2489874 172.943339,38.0568692 L174.695424,36.0790367 C175.773631,36.9460317 177.094434,37.5149973 178.523057,37.5149973 C180.086456,37.5149973 181.083797,36.8376574 181.083797,35.8351943 C181.083797,34.5888889 180.517739,34.2095785 177.849178,33.4509579 C174.911065,32.63815 173.617218,31.229283 173.617218,29.1159825 C173.617218,26.731746 175.800586,24.9435687 179.116071,24.9435687 Z M188.577332,35.6997263 C189.81727,35.6997263 190.787655,36.6750958 190.787655,37.8943076 C190.787655,39.0864258 189.81727,40.0888889 188.577332,40.0888889 C187.36435,40.0888889 186.420919,39.0864258 186.420919,37.8943076 C186.420919,36.6750958 187.36435,35.6997263 188.577332,35.6997263 Z M199.655904,24.9435687 C201.51581,24.9435687 202.944433,25.458347 204.292191,26.6233716 L202.728792,28.7366721 C201.812316,28.005145 200.949751,27.6800219 199.871545,27.6800219 C197.876863,27.6800219 196.663881,29.1430761 196.663881,32.5839628 C196.663881,36.0519431 197.930773,37.2711549 199.871545,37.2711549 C200.949751,37.2711549 201.704496,36.9189381 202.701837,36.1603175 L204.292191,38.4361795 C202.998344,39.4928298 201.51581,40.0888889 199.682859,40.0888889 C195.558719,40.0888889 192.997979,37.2169677 192.997979,32.63815 C192.997979,28.0593322 195.558719,24.9435687 199.655904,24.9435687 Z M212.621336,24.9435687 C216.826341,24.9435687 219.306216,27.8154899 219.306216,32.502682 C219.306216,37.0273125 216.799386,40.0888889 212.594381,40.0888889 C208.389376,40.0888889 205.882546,37.2169677 205.882546,32.502682 C205.882546,28.005145 208.389376,24.9435687 212.621336,24.9435687 Z M212.621336,27.5716475 C210.599699,27.5716475 209.521493,29.1159825 209.521493,32.502682 C209.521493,35.9435687 210.572744,37.4608101 212.594381,37.4608101 C214.616018,37.4608101 215.667269,35.9164751 215.667269,32.502682 C215.667269,29.0888889 214.616018,27.5716475 212.621336,27.5716475 Z M237.662681,24.9435687 C239.926914,24.9435687 241.436404,26.5962781 241.436404,29.3056377 L241.436404,39.6824849 L237.986143,39.6824849 L237.986143,29.8475096 C237.986143,28.0593322 237.285309,27.5445539 236.422744,27.5445539 C235.236716,27.5445539 234.508927,28.3844554 233.727227,29.7120416 L233.727227,39.6824849 L230.276967,39.6824849 L230.276967,29.8475096 C230.276967,28.0593322 229.549177,27.5445539 228.713567,27.5445539 C227.500585,27.5445539 226.772796,28.3844554 225.991096,29.7120416 L225.991096,39.6824849 L222.540835,39.6824849 L222.540835,25.3499726 L225.532858,25.3499726 L225.80241,27.2194308 C226.826706,25.7834702 228.120554,24.9435687 229.92655,24.9435687 C231.59777,24.9435687 232.837707,25.8376574 233.37681,27.3548987 C234.455017,25.864751 235.77582,24.9435687 237.662681,24.9435687 Z" id="path-3"></path>
    </defs>
    <g id="Landing-3-Copy" stroke="none" stroke-width="1" fill="none" fill-rule="evenodd" transform="translate(-160.000000, -103.000000)">
        <g id="Logo/logo--primary--name" transform="translate(160.000000, 103.000000)">
            <g id="logo-text" transform="translate(-14.436404, -8.800000)">
                <g id="Logo/logo--white">
                    <mask id="mask-2" fill="white">
                        <use xlink:href="#path-1"></use>
                    </mask>
                    <use id="Page-1" fill="#EF3854" xlink:href="#path-1"></use>
                    <g id="Colour/White" mask="url(#mask-2)" fill="#EF3854">
                        <rect id="Rectangle" x="0" y="0" width="63.7192982" height="62.5777778"></rect>
                    </g>
                </g>
                <mask id="mask-4" fill="white">
                    <use xlink:href="#path-3"></use>
                </mask>
                <use id="newbricks.com" fill="#D2CFDD" xlink:href="#path-3"></use>
                <g id="Colour/Light-Grey" mask="url(#mask-4)" fill="#84818E">
                    <g transform="translate(54.260965, 8.800000)" id="Rectangle">
                        <rect x="0" y="0" width="187.175439" height="44"></rect>
                    </g>
                </g>
            </g>
        </g>
    </g>
</svg>